# xmcd
#
# Track frame offsets:
#	150
#	13424
#	25886
#	36826
#	55967
#	73182
#	85550
#	98044
#	122700
#	139044
#
# Disc length: 2055 seconds
#
# Revision: 1
# Processed by: cddbd v1.5.2PL0 Copyright (c) Steve Scherf et al.
# Submitted via: audiograbber 1.83.01
#
DISCID=8408050a
DTITLE=Bellamy Brothers - Beautiful Friends
DYEAR=1978
DGENRE=Country
TTITLE0=Slippin' Away
TTITLE1=Make Me Over
TTITLE2=Bird Dog
TTITLE3=My Shy Anne
TTITLE4=It's Just The Gypsy In Your Soul
TTITLE5=Let's Give Love A Go
TTITLE6=Wild Honey
TTITLE7=Tumbleweed And Rosalee
TTITLE8=Mornin' Mockingbird
TTITLE9=When The Music Plays
EXTD=
EXTT0=
EXTT1=
EXTT2=
EXTT3=
EXTT4=
EXTT5=
EXTT6=
EXTT7=
EXTT8=
EXTT9=
PLAYORDER=
